name rise31.4854peak64.571fall78.6902.mot
datacolumns 19
datarows 14
range 18.92659500000000 18.94826100000000
endheader
time	ground_force1_vx	ground_force1_vy	ground_force1_vz	ground_force1_px	ground_force1_py	ground_force1_pz	ground_force2_vx	ground_force2_vy	ground_force2_vz	ground_force2_px	ground_force2_py	ground_force2_pz	ground_torque1_x	ground_torque1_y	ground_torque1_z	ground_torque2_x	ground_torque2_y	ground_torque2_z	
18.92659500000000	-4.80015700000000	41.71587700000000	-12.72858000000000	0.32938000000000	0.00000000000000	0.08299900000000	-53.90752000000000	810.06616399999996	-56.60925400000000	0.10910300000000	0.00000000000000	-0.09523600000000	0.00000000000000	-8.94462800000000	0.00000000000000	0.00000000000000	-21.08269100000000	0.00000000000000	
18.92826100000000	-5.24802300000000	48.67968100000000	-14.38391500000000	0.33463300000000	0.00000000000000	0.08374800000000	-54.15178000000000	807.64112899999998	-56.34822300000000	0.10873300000000	0.00000000000000	-0.09515800000000	0.00000000000000	-10.20417400000000	0.00000000000000	0.00000000000000	-20.99840900000000	0.00000000000000	
18.92993000000000	-5.59834900000000	55.67361900000000	-15.91373500000000	0.33932200000000	0.00000000000000	0.08445100000000	-54.41042300000000	805.08271100000002	-56.06317600000000	0.10836700000000	0.00000000000000	-0.09507600000000	0.00000000000000	-11.38998200000000	0.00000000000000	0.00000000000000	-20.91546400000000	0.00000000000000	
18.93160300000000	-5.83702900000000	62.60258700000000	-17.28456600000000	0.34353000000000	0.00000000000000	0.08511400000000	-54.68396900000000	802.39085299999999	-55.75386100000000	0.10800700000000	0.00000000000000	-0.09498900000000	0.00000000000000	-12.47588600000000	0.00000000000000	0.00000000000000	-20.83394100000000	0.00000000000000	
18.93326400000000	-5.95531200000000	69.39590300000000	-18.47372700000000	0.34732800000000	0.00000000000000	0.08574200000000	-54.97285600000000	799.56553299999996	-55.42005600000000	0.10765100000000	0.00000000000000	-0.09489800000000	0.00000000000000	-13.44339400000000	0.00000000000000	0.00000000000000	-20.75391100000000	0.00000000000000	
18.93493300000000	-5.94973400000000	76.00929900000000	-19.46955100000000	0.35077300000000	0.00000000000000	0.08633900000000	-55.27743500000000	796.60675300000003	-55.06156400000000	0.10729900000000	0.00000000000000	-0.09480300000000	0.00000000000000	-14.28202600000000	0.00000000000000	0.00000000000000	-20.67542500000000	0.00000000000000	
18.93659900000000	-5.82163200000000	82.42440800000000	-20.27066700000000	0.35391200000000	0.00000000000000	0.08691000000000	-55.59796300000000	793.51453300000003	-54.67822100000000	0.10695100000000	0.00000000000000	-0.09470300000000	0.00000000000000	-14.98892700000000	0.00000000000000	0.00000000000000	-20.59851700000000	0.00000000000000	
18.93826000000000	-5.57635900000000	88.64621500000000	-20.88456400000000	0.35678500000000	0.00000000000000	0.08745700000000	-55.93460700000000	790.28891299999998	-54.26989200000000	0.10660600000000	0.00000000000000	-0.09459800000000	0.00000000000000	-15.56792200000000	0.00000000000000	0.00000000000000	-20.52320400000000	0.00000000000000	
18.93992900000000	-5.22229400000000	94.69901200000000	-21.32567700000000	0.35942600000000	0.00000000000000	0.08798200000000	-56.28743200000000	786.92993799999999	-53.83647400000000	0.10626300000000	0.00000000000000	-0.09448900000000	0.00000000000000	-16.02818400000000	0.00000000000000	0.00000000000000	-20.44948400000000	0.00000000000000	
18.94159300000000	-4.76979000000000	100.62148700000000	-21.61323900000000	0.36186300000000	0.00000000000000	0.08848900000000	-56.65640700000000	783.43766200000005	-53.37790100000000	0.10592300000000	0.00000000000000	-0.09437400000000	0.00000000000000	-16.38269000000000	0.00000000000000	0.00000000000000	-20.37733600000000	0.00000000000000	
18.94326300000000	-4.23013600000000	106.46147000000001	-21.76910800000000	0.36412100000000	0.00000000000000	0.08897800000000	-57.04139600000000	779.81213900000000	-52.89413700000000	0.10558600000000	0.00000000000000	-0.09425500000000	0.00000000000000	-16.64663900000000	0.00000000000000	0.00000000000000	-20.30672200000000	0.00000000000000	
18.94493400000000	-3.61463300000000	112.27084600000001	-21.81576900000000	0.36622000000000	0.00000000000000	0.08945200000000	-57.44216100000000	776.05342299999995	-52.38518500000000	0.10525100000000	0.00000000000000	-0.09413100000000	0.00000000000000	-16.83595700000000	0.00000000000000	0.00000000000000	-20.23758400000000	0.00000000000000	
18.94659500000000	-2.93382800000000	118.10100700000000	-21.77461900000000	0.36817900000000	0.00000000000000	0.08991100000000	-57.85835700000000	772.16156100000001	-51.85108500000000	0.10491800000000	0.00000000000000	-0.09400200000000	0.00000000000000	-16.96601100000000	0.00000000000000	0.00000000000000	-20.16984800000000	0.00000000000000	
18.94826100000000	-2.19693500000000	123.99910199999999	-21.66463900000000	0.37001200000000	0.00000000000000	0.09035700000000	-58.28953500000000	768.13659600000005	-51.29191400000000	0.10458600000000	0.00000000000000	-0.09386800000000	0.00000000000000	-17.05058500000000	0.00000000000000	0.00000000000000	-20.10341800000000	0.00000000000000	
